<svg width="17" height="17" viewBox="0 0 17 17" fill="none" xmlns="http://www.w3.org/2000/svg">
<path d="M6.52937 4.33574C6.17137 4.40574 5.77937 4.63774 5.47137 5.18174C5.43893 5.23886 5.39556 5.28904 5.34373 5.3294C5.2919 5.36977 5.23263 5.39953 5.1693 5.41698C5.10597 5.43444 5.03983 5.43925 4.97464 5.43115C4.90945 5.42304 4.84649 5.40217 4.78937 5.36974C4.73224 5.3373 4.68206 5.29393 4.6417 5.2421C4.60134 5.19027 4.57158 5.131 4.55412 5.06767C4.53666 5.00434 4.53185 4.9382 4.53996 4.87301C4.54806 4.80782 4.56893 4.74486 4.60137 4.68774C5.04237 3.91174 5.66937 3.48474 6.33737 3.35474C6.95892 3.23735 7.60175 3.36685 8.12937 3.71574C8.61337 4.03574 9.00437 4.55874 9.01637 5.18574C9.02937 5.84074 8.63137 6.43174 7.89737 6.86574C7.39937 7.15974 7.20537 7.35974 7.12237 7.49274C7.05237 7.60474 7.03637 7.70674 7.03637 7.93474C7.03637 8.06735 6.98369 8.19452 6.88992 8.28829C6.79615 8.38206 6.66897 8.43474 6.53637 8.43474C6.40376 8.43474 6.27658 8.38206 6.18281 8.28829C6.08904 8.19452 6.03637 8.06735 6.03637 7.93474C6.03637 7.66274 6.05037 7.32474 6.27337 6.96474C6.48337 6.62774 6.84237 6.32774 7.38837 6.00474C7.92337 5.68774 8.02037 5.38674 8.01737 5.20674C8.01237 4.99974 7.87537 4.74674 7.57737 4.54974C7.26883 4.34562 6.89323 4.26892 6.52937 4.33574Z" fill="black" fill-opacity="0.5"/>
<path d="M6.78613 10.9336C6.98505 10.9336 7.17581 10.8546 7.31646 10.7139C7.45711 10.5733 7.53613 10.3825 7.53613 10.1836C7.53613 9.98468 7.45711 9.79392 7.31646 9.65326C7.17581 9.51261 6.98505 9.43359 6.78613 9.43359C6.58722 9.43359 6.39646 9.51261 6.2558 9.65326C6.11515 9.79392 6.03613 9.98468 6.03613 10.1836C6.03613 10.3825 6.11515 10.5733 6.2558 10.7139C6.39646 10.8546 6.58722 10.9336 6.78613 10.9336Z" fill="black" fill-opacity="0.5"/>
<path d="M6.53594 0.433594C5.40243 0.433329 4.28855 0.72949 3.30486 1.29268C2.32116 1.85588 1.50184 2.66652 0.928207 3.64417C0.354576 4.62182 0.0465782 5.73248 0.0347789 6.86593C0.0229796 7.99938 0.307789 9.11621 0.860943 10.1056L0.0659432 12.1876C-0.000227854 12.3607 -0.017013 12.5487 0.0174604 12.7308C0.0519338 12.9128 0.13631 13.0817 0.261176 13.2186C0.386041 13.3555 0.546486 13.455 0.72461 13.5061C0.902734 13.5571 1.09153 13.5576 1.26994 13.5076L3.75694 12.8106C4.63793 13.2269 5.60123 13.4397 6.57559 13.4335C7.54995 13.4272 8.51044 13.2019 9.386 12.7744C10.2616 12.3468 11.0298 11.7279 11.6339 10.9634C12.238 10.1988 12.6624 9.30829 12.8759 8.35758C13.0894 7.40687 13.0863 6.42034 12.8671 5.47095C12.6478 4.52156 12.2179 3.63361 11.6092 2.87278C11.0005 2.11195 10.2285 1.49772 9.35032 1.07551C8.47216 0.653297 7.51032 0.433917 6.53594 0.433594ZM1.03594 6.93359C1.03639 5.73502 1.42835 4.56941 2.15219 3.61409C2.87602 2.65877 3.89211 1.96605 5.04586 1.64133C6.1996 1.31661 7.42784 1.37766 8.5437 1.81519C9.65955 2.25273 10.6019 3.04279 11.2275 4.06518C11.853 5.08757 12.1274 6.28631 12.009 7.47902C11.8906 8.67173 11.3858 9.7931 10.5715 10.6725C9.75713 11.552 8.67779 12.1413 7.49769 12.3509C6.31758 12.5605 5.10132 12.3788 4.03394 11.8336L3.85994 11.7436L0.999943 12.5446L1.96894 10.0086L1.84094 9.79859C1.31309 8.9363 1.03445 7.94462 1.03594 6.93359Z" fill="black" fill-opacity="0.5"/>
<path d="M9.49927 16.4355C8.56359 16.4365 7.63878 16.2351 6.78831 15.845C5.93784 15.4549 5.18186 14.8853 4.57227 14.1755C5.13527 14.3285 5.72527 14.4165 6.33227 14.4325C7.25858 15.0868 8.3652 15.4372 9.49927 15.4355C10.4013 15.4355 11.2513 15.2185 12.0013 14.8355L12.1753 14.7455L15.0353 15.5465L14.0663 13.0105L14.1943 12.8005C14.7043 11.9665 14.9993 10.9865 14.9993 9.9355C15.0008 8.82505 14.6646 7.74039 14.0353 6.8255C14.0271 6.2306 13.9482 5.63878 13.8003 5.0625C14.4922 5.67174 15.0462 6.42152 15.4254 7.26181C15.8046 8.10211 16.0002 9.01361 15.9993 9.9355C15.9993 11.0865 15.6993 12.1685 15.1733 13.1075L15.9693 15.1895C16.0353 15.3625 16.0521 15.5504 16.0176 15.7323C15.9832 15.9143 15.8989 16.083 15.7742 16.2199C15.6495 16.3568 15.4892 16.4563 15.3112 16.5074C15.1333 16.5586 14.9446 16.5593 14.7663 16.5095L12.2783 15.8125C11.4353 16.2125 10.4923 16.4355 9.49827 16.4355H9.49927Z" fill="black" fill-opacity="0.5"/>
</svg>
