<svg width="17" height="21" viewBox="0 0 17 21" fill="none" xmlns="http://www.w3.org/2000/svg">
<path d="M4.5811 12.4973C2.66925 9.19508 2.64808 6.22674 3.12285 3.87919C3.32214 2.89138 4.018 2.09028 4.92312 1.77532L5.83618 1.45577C6.69053 1.15822 7.6245 1.58033 8.01641 2.44236L8.79704 4.15634C9.13744 4.90396 8.92364 5.72693 8.318 6.3728C7.49535 7.24975 6.86871 7.87072 6.86871 7.87072C6.98523 8.84756 7.30385 9.78945 7.80432 10.6364C8.38492 11.6421 9.01271 12.237 9.73168 12.8295C9.73168 12.8295 10.5883 12.6047 11.7536 12.3234C12.5324 12.1355 13.2888 12.1035 13.7584 12.7566L14.8533 14.2773C15.118 14.6487 15.247 15.0998 15.2184 15.555C15.1899 16.0102 15.0056 16.4417 14.6965 16.7771L14.0173 17.4972C13.6946 17.846 13.282 18.0991 12.8247 18.2284C12.3674 18.3578 11.8834 18.3585 11.4257 18.2304C9.23522 17.6108 6.48909 15.7952 4.5811 12.4973ZM6.08927 7.03144L6.1686 6.95126L6.46754 6.64908C6.72177 6.38857 7.07837 6.02136 7.48242 5.58974C7.85125 5.19563 7.85813 4.8571 7.75527 4.63086L6.97464 2.91688C6.80925 2.55484 6.46986 2.44797 6.21301 2.53675L5.29995 2.8563C5.03129 2.95628 4.793 3.12394 4.60813 3.34302C4.42327 3.56211 4.2981 3.82522 4.24473 4.10687C3.81404 6.23987 3.82821 8.91209 5.57171 11.9228C7.33697 14.9711 9.8436 16.5918 11.7377 17.1286C11.994 17.1997 12.265 17.1983 12.5206 17.1246C12.7761 17.0508 13.0062 16.9076 13.1851 16.7108L13.8653 15.9902C14.1167 15.7247 14.1544 15.2679 13.9237 14.9462L12.8289 13.4255C12.8026 13.3891 12.7872 13.3808 12.7851 13.3794C12.7605 13.3677 12.734 13.3606 12.7069 13.3584C12.5795 13.3394 12.3664 13.3527 12.023 13.4359C11.4044 13.5857 10.7868 13.7399 10.1704 13.8986L10.0587 13.9273C9.63634 14.0363 9.1796 13.8293 9.0028 13.7131C8.23037 13.0761 7.48821 12.3793 6.81256 11.209C6.14549 10.0536 5.8746 9.0622 5.73375 8.0235C5.70878 7.83824 5.73942 7.38285 6.06311 7.05712L6.06891 7.05113L6.08927 7.03144V7.03144Z" fill="black" fill-opacity="0.5"/>
</svg>
