<svg width="21" height="21" viewBox="0 0 21 21" fill="none" xmlns="http://www.w3.org/2000/svg">
<path fill-rule="evenodd" clip-rule="evenodd" d="M9.3614 6.33888C9.8795 5.64067 10.0653 4.90482 9.47932 4.25529C8.16437 2.41531 7.28003 1.27747 6.72533 0.729514C5.67077 -0.312219 3.936 -0.171309 3.02267 0.728624C2.53212 1.21199 2.36604 1.37797 1.86235 1.88959C-0.943301 4.69674 0.767729 10.631 5.31627 15.184C9.86378 19.736 15.7975 21.4479 18.609 18.6348C19.0738 18.1867 19.4673 17.793 19.7777 17.465C20.6727 16.5189 20.8086 14.8607 19.7718 13.7834C19.2402 13.2311 18.1552 12.3894 16.2378 11.0179C15.6506 10.4928 14.9543 10.6066 14.3159 11.0254C14.0089 11.2269 13.7854 11.4307 13.3634 11.853L12.5972 12.6197C12.4963 12.7207 11.1259 12.0344 9.7956 10.7028C8.4646 9.37051 7.77878 8.00004 7.87923 7.89959L8.646 7.1324C8.77988 6.99839 8.84388 6.93351 8.92596 6.84725C9.09697 6.66752 9.23856 6.50441 9.3614 6.33888ZM14.0087 14.0337L14.7751 13.2669C15.0073 13.0345 15.1578 12.8915 15.2802 12.793C16.9599 13.9992 17.9327 14.7576 18.33 15.1705C18.5685 15.4184 18.5315 15.8706 18.3241 16.0898C18.0371 16.3932 17.6642 16.7662 17.2067 17.2076C15.3886 19.0264 10.5988 17.6445 6.72806 13.7699C2.85608 9.8941 1.47482 5.10358 3.27913 3.29827C3.78079 2.78876 3.93974 2.6299 4.42329 2.15344C4.60459 1.97479 5.09845 1.93468 5.31901 2.15255C5.74608 2.57442 6.53827 3.58878 7.70364 5.21212C7.64331 5.28702 7.56796 5.37166 7.47627 5.46803C7.40896 5.53876 7.35289 5.5956 7.23031 5.7183L6.46429 6.48474C5.16114 7.78778 6.27095 10.0055 8.37991 12.1165C10.4874 14.2261 12.706 15.3372 14.0087 14.0337Z" fill="#002333"/>
</svg>
